<svg xmlns="http://www.w3.org/2000/svg" viewBox="0 0 1020.59 324.44"><path d="M4040.15,623.33q0-42.74,0-85.47c0-6.71-3.47-11.58-9.18-13.33-5.12-1.57-11.37.39-13.73,5.45a29.69,29.69,0,0,0-2.28,12.05c-0.18,29.49-.1,59-0.09,88.47,0,26.33,0,52.65.11,79,0,4.11-1.42,5.82-5.52,5.63a94.41,94.41,0,0,0-11.49,0c-4.63.35-6.08-1.5-6-6.07,0.19-24.16.12-48.32,0.12-72.48,0-30.66-.13-61.32.1-92a78,78,0,0,1,2.39-18.74c3.56-13.77,15.5-22.57,29.75-23.06,8.69-.3,17,0.68,24.29,5.87,3,2.15,5.28.33,7.71-1.15,13.61-8.27,34.1-6,45,5.07,7.28,7.39,9.42,16.86,9.54,26.65,0.34,27,.23,54,0.27,81,0,29.66,0,59.32.12,89,0,4.68-1.69,6.3-6.19,6a93,93,0,0,0-11,0c-3.84.17-5.34-1.42-5.35-5.3,0-15-.33-30-0.35-45q-0.08-60.23,0-120.47a75.07,75.07,0,0,0-.41-9.48,12.59,12.59,0,0,0-12.42-10.86,12.32,12.32,0,0,0-12.17,10.47,82.17,82.17,0,0,0-.22,11q0,70,0,140,0,11.74.58,23.47c0.21,4.44-1.26,6.53-6,6.22-4.15-.28-8.33-0.12-12.49,0-3.37.07-4.74-1.39-4.73-4.82q0.11-43.48,0-87h-0.36Z" transform="translate(-3566.89 -394.19)"/><path d="M4385.87,610.83q0-47.72,0-95.44c0-13.29-4.23-18.56-17.27-21.65-7-1.65-10.63-6-10.65-13.06q-0.09-36.48,0-73c0-8.27,5.53-13.52,13.82-13.53h51c7.93,0,13.25,5.43,13.25,13.45q0,36.23,0,72.45c0,7.95-3.26,12.05-10.93,13.7-12.14,2.61-16.87,8.31-16.88,21q-0.06,96.69,0,193.38c0,6.5-.29,6.88-6.63,6.88-3.33,0-6.67-.15-10,0.05-4.31.26-5.88-1.48-5.82-5.85,0.2-15.82.12-31.65,0.13-47.47Q4385.88,636.31,4385.87,610.83Zm15.95-167.44c0-7.15.09-14.3,0-21.44-0.07-4-.14-8.42-5.21-9.52-2.9-.62-5.34,3.73-5.36,9.33q-0.09,21.69,0,43.39c0,3.95.67,8.68,5.27,8.81,4.92,0.14,5.22-4.8,5.31-8.63C4401.95,458,4401.83,450.7,4401.82,443.39Zm-28.87-.4c0,7.32,0,14.64,0,22,0,5.66,2.25,10,5.13,9.44,5.13-1.09,5-5.48,5.06-9.53q0-21.71,0-43.42c0-1.8,0-3.9-.83-5.31-1-1.63-2.93-3.49-4.6-3.63-1.26-.11-3.17,2.1-4,3.69s-0.7,3.54-.71,5.35C4372.91,428.68,4373,435.83,4372.95,443Zm37,0h0c0,5.48,0,11,0,16.45,0,3-.55,6.18.32,8.9,0.74,2.3,3.17,4.06,4.86,6.06,1.67-2,3.37-4,5-6.11a2.71,2.71,0,0,0,.15-1.47c0-15.62.06-31.24-.06-46.86,0-3.38-.73-7.45-4.85-7.52-4.38-.08-5.09,4-5.4,7.62-0.08,1,0,2,0,3Q4410,433,4410,443Z" transform="translate(-3566.89 -394.19)"/><path d="M4130.83,622.91c0-26.33-.1-52.66.08-79a79,79,0,0,1,1.81-16.33,31,31,0,0,1,27.5-24.6c17.49-1.92,31.85,4.28,37.28,17.85,2.89,7.21,4.07,15.53,4.15,23.37,0.39,40.16.16,80.32,0.19,120.49,0,14.83.05,29.66,0.31,44.49,0.07,4.23-1.19,6.22-5.68,5.94-4-.25-8-0.11-12,0-3.47.09-5.24-1.19-5.23-4.94,0.11-28.16.09-56.33,0.22-84.49,0-6.6-.66-7.5-7.32-7.47-4,0-8,0-12,0-5.73.06-6.58,0.92-6.58,6.78q0,41.5,0,83c0,6.83-.26,7.11-6.95,7.06-3.17,0-6.35-.22-9.49.06-4.75.43-6.45-1.31-6.42-6.22C4130.92,680.24,4130.82,651.58,4130.83,622.91Zm22.79-58.41h-0.05c0,8.48,0,17,0,25.45,0,6.16.87,7,6.86,7,3.83,0,7.65,0,11.48,0,6.18,0,7.15-.93,7.15-7.26,0-15.47,0-30.94-.05-46.41a60.21,60.21,0,0,0-.69-9.43c-0.81-4.94-4.15-7.93-8.72-9.32s-9.34-.34-12.12,3.61a21.26,21.26,0,0,0-3.69,10.43C4153.27,547.18,4153.62,555.86,4153.62,564.51Z" transform="translate(-3566.89 -394.19)"/><path d="M4587.48,609.92q0,35,0,70c0,29.06-26.72,46.63-53.32,34.93-9.37-4.12-15-11.73-17.05-21.49a97.6,97.6,0,0,1-2-19.84q-0.25-63.24,0-126.49a103.89,103.89,0,0,1,1.41-16.41c2.33-14.26,10.52-23.32,24.7-26.87,16.53-4.14,33.54,2,40.31,16.14a59.27,59.27,0,0,1,5.42,23.06c0.7,22.31.25,44.66,0.25,67h0.31Zm-49.57.81q0,32.24,0,64.48a93.45,93.45,0,0,0,.41,10.48A12.77,12.77,0,0,0,4549.89,697a12.27,12.27,0,0,0,13-10,37.59,37.59,0,0,0,.74-7.93q0.07-68.23,0-136.45a42.63,42.63,0,0,0-.75-8.43A12.42,12.42,0,0,0,4550.47,524a12.59,12.59,0,0,0-12.09,11.24,81.17,81.17,0,0,0-.46,10Q4537.87,578,4537.91,610.73Z" transform="translate(-3566.89 -394.19)"/><path d="M4429.61,614.51c0-30.66-.05-61.32.07-92,0-3.59.14-7.68,1.84-10.6,1.55-2.67,5.26-5.67,8.07-5.73,11.94-.26,24-0.52,35.8,1.2,13,1.91,21.88,11.08,22.91,23.85,1.51,18.82,1,37.86.28,56.76-0.3,7.81-5.37,13.82-13.42,16.45-1.06.34-2.44,1.64-2.49,2.56s1.07,2.43,2.07,3c9.26,5.31,12.89,14,13.06,23.86,0.43,25.49.25,51,.38,76.48,0,3.43-1.53,4.83-4.85,4.76-4.33-.09-8.67-0.23-13,0-4,.21-5.21-1.45-5.19-5.3,0.14-23,.11-46,0.11-69,0-2.66,0-5.35-.21-8a16,16,0,0,0-19.34-14.06c-3.52.74-3.72,3.25-3.71,6.07q0.05,16.75,0,33.49c0,16.83-.12,33.66.13,50.49,0.07,4.87-1.61,6.66-6.39,6.3a105.58,105.58,0,0,0-11.49,0c-3.67.12-5-1.54-5-5.13q0.11-47.74,0-95.47h0.25ZM4452,561.94c0,9.64-.18,19.29.14,28.93,0.07,2.07,1.47,5.28,3.08,5.92,10.52,4.22,22.34-3.15,22.76-14.43,0.51-13.95.26-27.92,0.16-41.89,0-5.28-2.73-9.56-7.51-11.43-3.73-1.46-8-1.53-12.13-2-4.69-.53-6.61,1.78-6.54,6.45C4452.12,543,4452,552.46,4452,561.94Z" transform="translate(-3566.89 -394.19)"/><path d="M3974,610.88q0,35,0,69.93c0,9.74-1.78,19-8.57,26.44-10.58,11.62-24.17,12.8-38.22,9.36-13.81-3.38-20.88-13.49-23-27.2a75.61,75.61,0,0,1-.87-11.43q-0.09-66.94,0-133.88a84,84,0,0,1,1.79-16.31c2.75-13.56,11.44-21.63,24.79-24.2,16.3-3.15,32.24,1.42,39.15,15.71,3.13,6.49,4.5,14.35,4.68,21.64C3974.36,564.24,3974,587.56,3974,610.88Zm-48.14-.42h-0.07q0,31.46,0,62.92a110.42,110.42,0,0,0,.36,12.47,12.65,12.65,0,0,0,12.7,11.12,12.32,12.32,0,0,0,12.24-11.48c0.38-4,.65-8,0.65-12q0.07-60.92,0-121.84c0-5.15-.25-10.31-0.61-15.45-0.49-7-5.5-12-12.11-12.19-6.25-.22-11.65,4.36-12.81,11a35.06,35.06,0,0,0-.34,6Q3925.84,575.75,3925.86,610.45Z" transform="translate(-3566.89 -394.19)"/><path d="M3729.13,597.76c0,27.49.08,55,0,82.47,0,10.9-1.89,21.31-10.62,29.11-11.28,10.06-24.48,10.78-38,6.65s-20-14.43-21.33-28c-0.75-7.61-.92-15.29-0.93-22.95q-0.12-76.47,0-152.94c0-6.13.43-6.52,6.5-6.38,4,0.09,8,0,12,0,2.89,0,4.3,1.41,4.3,4.28,0,3.83,0,7.66,0,11.49q0,77,0,153.94a81.53,81.53,0,0,0,.85,11.44,11.89,11.89,0,0,0,9.84,10c5.6,0.89,11-1.63,13.18-6.79a24.72,24.72,0,0,0,1.75-9.18q0.15-84,.06-167.93c0-7.36,0-7.33,7.57-7.18a76.17,76.17,0,0,0,9-.06c4.73-.47,6,1.65,6,6.1-0.13,28.65-.06,57.31-0.06,86h0Z" transform="translate(-3566.89 -394.19)"/><path d="M3590.8,610.27c0,21.83,0,43.65,0,65.48a50.83,50.83,0,0,0,1,9.91c1.67,8.18,6.74,12,14.43,11.25,7-.69,11.43-5.77,11.59-13.82,0.16-7.83,0-15.66,0-23.49,0-8.5-.05-17,0.08-25.49,0.07-4.36-1.6-6.44-6.18-6.35-6.58.12-6.6-.06-6.57-6.72,0-3.33,0-6.67,0-10s1.51-4.8,4.86-4.77c8,0.08,16,.06,24,0,3.45,0,4.63,1.72,4.62,5-0.08,24.82,0,49.64-.14,74.46-0.1,16.17-7.33,26-23,30.32-13.83,3.85-27.17,3.31-38-7.87-7-7.18-8.74-16.56-9.06-25.87-0.83-24.28-1-48.59-1.27-72.88-0.19-20.33-.39-40.66.14-61a96.14,96.14,0,0,1,3.86-24.06c4.53-15.56,23.1-24.8,40.54-21,16,3.48,25,12.8,26.32,29,1,11.92.55,24,.41,35.95,0,1.27-2.23,3.46-3.6,3.61a129.28,129.28,0,0,1-13.48.22c-3.73,0-4.19-2.41-4.16-5.4,0.07-8.83.36-17.68-.09-26.48a26.83,26.83,0,0,0-3.17-11.27c-2.37-4.29-6.92-5.63-11.73-4.91-4.64.69-8.16,3.42-9.47,7.88a45.55,45.55,0,0,0-1.8,12.26C3590.71,566.29,3590.8,588.28,3590.8,610.27Z" transform="translate(-3566.89 -394.19)"/><path d="M4319.07,561.92c0,7.66-.12,15.33,0,23,0.19,9.89,4.82,14.65,14.6,15.35,20.65,1.49,32.3,13.69,32.51,34.37q0.24,24.23,0,48.47c-0.16,13.37-4.8,24.64-17.37,30.93-13.17,6.59-26.48,6.17-39.05-1.69-9.3-5.81-12.71-15.34-13.36-25.61-0.71-11.12-.32-22.31-0.43-33.46,0-3,1.53-4.2,4.35-4.19,4.16,0,8.33.06,12.49,0,3.69-.07,5,1.79,4.9,5.29q-0.2,12.24-.06,24.49a42.11,42.11,0,0,0,.83,8.42c1.35,6.25,5.95,9.9,12,9.91a12.27,12.27,0,0,0,12.31-9.7,44.77,44.77,0,0,0,.92-9.91q-0.1-20.73-.5-41.46c-0.16-9.35-4.17-13.38-13.41-14.7-5.23-.75-10.62-1.66-15.46-3.64-12-4.94-17.31-15.35-17.78-27.37-0.75-19.11-.59-38.3.27-57.41,0.61-13.48,8.21-23.17,21.05-27.73,13.4-4.75,26.36-3.5,37.64,5.79,7.9,6.5,10.24,15.81,10.63,25.51,0.41,10.31.16,20.65,0.3,31,0,3.12-1.19,4.68-4.38,4.65-4,0-8-.1-12,0.06-3.69.15-5.08-1.56-5-5.1,0.1-7.83.13-15.66,0-23.49a45.67,45.67,0,0,0-.94-8.91c-1.51-7-6.55-11-13-10.73s-11.66,5.22-12,12.44C4318.76,544.92,4319.07,553.43,4319.07,561.92Z" transform="translate(-3566.89 -394.19)"/><path d="M3770.68,563.22c0,6.67-.09,13.33,0,20,0.2,11.83,4.34,16.21,16,17.12,18.57,1.45,30.62,13.75,31.1,32.71q0.65,25.73,0,51.49c-0.41,15.23-7.42,26.65-22.37,31.59-14.09,4.66-27.4,3-38.51-7.72-5.8-5.58-8.2-13-8.62-20.8-0.61-11.47-.59-23-0.84-34.46-0.07-3.07,1.74-4.09,4.46-4.09,4,0,8,.13,12,0s5.27,1.57,5.26,5.41c0,10,0,20,.46,30,0.33,7.12,5.13,12.11,11.21,12.67,7,0.63,12.47-3.32,13.8-10.2a53,53,0,0,0,1.1-10.42c-0.13-13.49-.58-27-0.75-40.46-0.1-8.22-5-14.95-14.07-14.68a33.92,33.92,0,0,1-9.34-1.52c-12.56-3.28-20-11.6-22.42-24.17a100.46,100.46,0,0,1-1.39-17.89c-0.1-13.66,0-27.33.34-41,1-33.72,36.41-41.05,56.2-28.13,9.79,6.39,12.72,16.52,13.47,27.17,0.74,10.45.13,21,.25,31.48,0,3.74-1.75,5-5.24,4.9-3.66-.12-7.34-0.21-11,0-4.05.24-5.22-1.67-5.15-5.41q0.24-13,.06-26c-0.15-10.48-4.75-16.48-12.58-16.8s-13,5.21-13.66,15.73c-0.47,7.8-.09,15.64-0.09,23.47h0.34Z" transform="translate(-3566.89 -394.19)"/><path d="M4221.49,610.33q0-49.73,0-99.46c0-3.58,1.2-5.22,4.89-5.21q26.74,0.09,53.48,0c3.67,0,5.1,1.63,5,5.17a105.72,105.72,0,0,0,0,11c0.29,4-1.47,5.39-5.25,5.35-9.5-.12-19-0.08-28.49-0.12-6,0-7.06.94-7.06,6.87q0,27.74,0,55.48c0,5.91,1,6.87,7.06,6.85,7.33,0,14.66.09,22-.12,4.36-.12,6.06,1.67,5.78,6a77.22,77.22,0,0,0,0,10c0.26,4.07-1.4,5.81-5.5,5.73-7.49-.14-15-0.09-22.49-0.08-5.8,0-6.82,1-6.83,6.58,0,21.16,0,42.32-.11,63.48,0,4.78,2,6.53,6.63,6.44,9.16-.19,18.33-0.08,27.49-0.1,6.21,0,6.74.54,6.72,6.92,0,3.17-.06,6.33,0,9.5,0.13,3.61-1.47,5.06-5.1,5q-26.48-.15-53,0c-3.8,0-5.35-1.29-5.34-5.26,0.11-33.32.06-66.64,0.06-100h0Z" transform="translate(-3566.89 -394.19)"/><path d="M3872,621.56c0,29.14-.07,58.28.08,87.43,0,4.44-1.15,6.55-5.92,6.14a72.9,72.9,0,0,0-11,0c-4.42.29-6.23-1.2-6.22-5.94q0.22-74.94.13-149.87c0-8.49,0-17,0-25.48,0-5.71-1.07-6.76-6.66-6.77-5.16,0-10.33,0-15.48.12-3.52.08-5.28-1.39-5.26-5s0.08-7.34-.21-11c-0.33-4.19,1.45-5.6,5.51-5.57,20.65,0.14,41.3.11,61.95,0.14,10.88,0,10.82,0,10.92,10.82,0.1,11.53.21,10.65-10.58,10.5-3.83-.05-7.66.09-11.49,0-4.73-.17-5.93,2.37-5.9,6.58,0.11,19.65.07,39.3,0.08,58.95q0,14.49,0,29h0Z" transform="translate(-3566.89 -394.19)"/></svg>
