<svg xmlns="http://www.w3.org/2000/svg" viewBox="0 0 39.3 47.81"><path class="a" d="M232.62-223.69a12.23,12.23,0,0,1,4.17-7.38c4.45-3.94,9-2.46,10,3.38,0.75,4.15,2.4,8.51-2.56,11.54-1.72,1.05-.92,2.86-0.35,4.39a28.77,28.77,0,0,0,6.18,9.63c2.9,3,5.78,5.22,9.69,1.32,1.46-1.44,3.21-1.08,4.78.2,1,0.81,2.07,1.52,3,2.39,1.77,1.66,4.77,2.69,4,6s-3.28,5.37-6.64,6.24c-2.54.64-5.07,1-7.53-.2-14.12-6.69-22-18-24.88-33.14a11.29,11.29,0,0,1-.08-2.4C232.41-222.4,232.55-223.05,232.62-223.69Z" transform="translate(-232.37 233.27)"/></svg>
