<svg xmlns="http://www.w3.org/2000/svg" viewBox="0 0 45.19 45.36"><path class="a" d="M546.5-219a0.85,0.85,0,0,1,.65-0.1h11.49c0.5,0,.83,0,0.83.69-0.06,6.58-.12,13.14,0,19.72a9.09,9.09,0,0,1-8.86,8.7c-9.21-.1-18.43,0-27.64,0a9,9,0,0,1-8.36-7.39,22.62,22.62,0,0,1-.14-3.05c0-5.85,0-11.69,0-17.54a0.91,0.91,0,0,1,1.11-1.13q5.5,0.06,11,0c1,0,.93.22,0.52,1a11.45,11.45,0,0,0,7.31,16.94,11.4,11.4,0,0,0,14-10.94,12,12,0,0,0-1.64-6.22A0.67,0.67,0,0,1,546.5-219Z" transform="translate(-514.41 235.38)"/><path class="a" d="M559.14-228.56a8.8,8.8,0,0,0-7.65-6.64,45.14,45.14,0,0,0-4.64-.12c-6.58-.06-13.14,0-19.72-0.06a0.73,0.73,0,0,0-.87.91c0,3.13,0,6.28,0,9.41,0,0.83-.28,1-1,1s-1-.2-1-1c0-3,0-6.08,0-9.11,0-.46.42-1.25-0.61-1.23s-0.55.75-.55,1.17c0,3,0,6.08,0,9.11,0,0.67-.1,1-0.89,1s-1-.32-1-1.05c0-3,0-6,0-9,0-.3.06-0.69-0.28-0.77a1,1,0,0,0-.91.3,1,1,0,0,0-.14.85c0,2.87,0,5.75,0,8.62,0,0.69,0,1.09-.93,1.07s-0.87-.4-0.87-1c0-2.77,0-5.55,0-8.52a9.13,9.13,0,0,0-3.41,4.85c-0.65,2.4-.26,4.85-0.4,7.29,0,0.79.22,1,1,1,4.12,0,8.26,0,12.38,0a2.29,2.29,0,0,0,1.61-.57c4.12-3.41,9.49-3.9,13.73-.91a7.66,7.66,0,0,0,5.37,1.47c0.24,0,.46,0,0.69,0h9.51c0.36,0,.87.18,0.87-0.48C559.56-223.51,559.79-226.08,559.14-228.56Zm-3.88,3.51a1.21,1.21,0,0,1-1.11,1.19,20,20,0,0,1-5.21,0,1.21,1.21,0,0,1-1.17-1.25,37,37,0,0,1,.06-5.13,1.13,1.13,0,0,1,1.23-1.13c0.85,0,1.72,0,2.58,0h0c0.83,0,1.64,0,2.48,0a1.09,1.09,0,0,1,1.15,1.11A25.45,25.45,0,0,1,555.26-225.05Z" transform="translate(-514.41 235.38)"/><path class="a" d="M536.77-221.29a8.93,8.93,0,0,0-8.7,8.76,8.74,8.74,0,0,0,9,9,8.77,8.77,0,0,0,8.64-8.78A8.83,8.83,0,0,0,536.77-221.29Zm0.12,15.4a6.51,6.51,0,0,1-6.44-6.64,6.53,6.53,0,0,1,6.38-6.38,6.52,6.52,0,0,1,6.66,6.42A6.48,6.48,0,0,1,536.89-205.89Z" transform="translate(-514.41 235.38)"/></svg>
