<svg xmlns="http://www.w3.org/2000/svg" viewBox="0 0 23.51 52.27"><title>icon--facebook</title><path class="a" d="M498.69-226.76c-0.63-.41-1.15-0.74-1.67-1.06a5.17,5.17,0,0,0-3.3-.85,3.4,3.4,0,0,0-3.54,3.1,3.53,3.53,0,0,0-.09.41c-0.35,2.56,0,3,2.54,3,1.8,0,3.63,0,5.43,0,0.72,0,1,.17.82,0.93-0.52,2.47-1,4.95-1.48,7.42a0.85,0.85,0,0,1-1,.8c-1.52,0-3,.07-4.56,0-1-.07-1.17.3-1.17,1.22,0,8.64,0,17.3,0,25.94,0,1.06-.28,1.35-1.32,1.3-2.21-.09-4.41,0-6.62,0-1.41,0-1.41,0-1.41-1.37,0-8.57,0-17.15,0-25.72,0-1.15-.33-1.41-1.39-1.35-0.91.07-2.08,0.41-2.74-.17s0-1.71,0-2.6c0-1.85,0-3.69,0-5.54a0.67,0.67,0,0,1,.8-0.82c0.91,0,1.8,0,2.71,0a0.68,0.68,0,0,0,.85-0.87,20.28,20.28,0,0,1,.43-5.49c1.43-6.19,5.19-8.75,12-8.27,2.08,0.15,4,1.09,5.9,1.74a0.71,0.71,0,0,1,.54,1C499.87-231.69,499.3-229.3,498.69-226.76Z" transform="translate(-476.96 236.89)"/></svg>
