<svg xmlns="http://www.w3.org/2000/svg" viewBox="0 0 144.54 113.04"><path d="M1801.88-1156.16A28,28,0,0,1,1774-1184a28,28,0,0,1,27.87-27.87h3.66a28,28,0,0,1,24.22-13.94,27.54,27.54,0,0,1,24,13.94h3.83A28,28,0,0,1,1885.5-1184a28,28,0,0,1-27.87,27.87v38.33a3.49,3.49,0,0,1-3.48,3.48h-48.78a3.49,3.49,0,0,1-3.48-3.48v-38.33Zm0-41.81a30.06,30.06,0,0,1,1.92-10.45h-1.92a24.46,24.46,0,0,0-24.39,24.39,24.46,24.46,0,0,0,24.39,24.39,3.5,3.5,0,0,1,3.48,3.48v20.91h10.45v-13.94a1.65,1.65,0,0,1,1.74-1.74,1.65,1.65,0,0,1,1.74,1.74v13.94H1828v-17.42a1.65,1.65,0,0,1,1.74-1.74,1.65,1.65,0,0,1,1.74,1.74v17.42h8.71v-13.94a1.65,1.65,0,0,1,1.74-1.74,1.65,1.65,0,0,1,1.74,1.74v13.94h10.45v-20.91a3.5,3.5,0,0,1,3.48-3.48A24.46,24.46,0,0,0,1882-1184a24.46,24.46,0,0,0-24.39-24.39h-2.09a26.67,26.67,0,0,1,2.09,10.45v7a1.65,1.65,0,0,1-1.74,1.74,1.65,1.65,0,0,1-1.74-1.74v-7a24.46,24.46,0,0,0-24.39-24.39,24.46,24.46,0,0,0-24.39,24.39v7a1.65,1.65,0,0,1-1.74,1.74,1.65,1.65,0,0,1-1.74-1.74v-7Zm3.48,80.14h48.78v-13.94h-48.78v13.94Z" transform="translate(-1774 1225.85)"/><path d="M1877-1133.59a20.73,20.73,0,0,0,20.77,20.77,20.84,20.84,0,0,0,20.77-20.77c0-3.68-6.87-6.71-14.38-7.51v-64.6a6.41,6.41,0,0,0-6.39-6.39,6.41,6.41,0,0,0-6.39,6.39v64.6c-7.67.8-14.38,3.84-14.38,7.51h0Zm25.57-4.63c3.2,0,12.78,1.76,12.78,4.63,0,2.72-7.83,4.79-17.58,4.79s-17.58-2.08-17.58-4.79c0-2.88,9.59-4.63,12.78-4.63a1.51,1.51,0,0,0,1.6-1.6v-65.88a3.21,3.21,0,0,1,3.2-3.2,3.21,3.21,0,0,1,3.2,3.2v65.88a1.51,1.51,0,0,0,1.6,1.6h0Zm-4.79,22.21a17.69,17.69,0,0,1-17.1-12.94c3.84,2.08,10.07,3.36,17.1,3.36s13.26-1.28,16.94-3.36A17.36,17.36,0,0,1,1897.77-1116Z" transform="translate(-1774 1225.85)"/><path d="M1812.67-1198.51h0a1.75,1.75,0,0,1-1.75-1.9,18.92,18.92,0,0,1,17.19-16.73,1.75,1.75,0,0,1,1.9,1.75h0a1.75,1.75,0,0,1-1.6,1.74,15.53,15.53,0,0,0-14,13.58A1.75,1.75,0,0,1,1812.67-1198.51Z" transform="translate(-1774 1225.85)"/></svg>
