<svg xmlns="http://www.w3.org/2000/svg" viewBox="0 0 39.32 44.49"><path class="a" d="M615.13-213.25a21.52,21.52,0,0,0-4.71-1.62l1.32-.65a9.66,9.66,0,0,0,5.62-9.44c-0.13-4.23-2.51-6.94-6.37-8.49a26.51,26.51,0,0,0-9.44-1.4c-6.4-.11-12.81,0-19.23-0.06-0.73,0-1,.17-1,1q0,21.26,0,42.54c0,0.84.28,1,1.06,1,6.65,0,13.31,0,20,0a25,25,0,0,0,9-1.45c4.9-1.94,8.45-5,9.18-10.65A10.09,10.09,0,0,0,615.13-213.25Zm-21.52-5.38c0.06-1.15,0-2.29,0-3.46V-226c0-.43,0-0.78.63-0.76,2.29,0.11,4.6-.19,6.87.22a4,4,0,0,1,3.67,3.89c0.11,2.18-.56,3.87-2.83,4.67a7.23,7.23,0,0,1-2.61.52c-1.51,0-3-.06-4.54,0C593.78-217.29,593.54-217.68,593.61-218.63Zm13.48,17.26c-1.06,1.75-2.87,2.2-4.69,2.51-2.7.48-5.44,0.15-8.19,0.24-0.58,0-.6-0.32-0.6-0.76v-9.51c0-.41,0-0.82.58-0.8,3.09,0.09,6.2-.28,9.27.26A5.15,5.15,0,0,1,607.09-201.37Z" transform="translate(-581.32 234.92)"/></svg>
