<svg xmlns="http://www.w3.org/2000/svg" viewBox="0 0 53.93 53.96"><title>icon--foursquare</title><path class="a" d="M854.12-211.61c0.9,1.73,1.7,3.49,1.36,5.53a10.91,10.91,0,0,1-2.9,4.35c-6.25,6.18-12.45,12.42-18.67,18.63-3.69,3.69-7.14,3.68-10.87,0q-9.27-9.26-18.54-18.51a10.87,10.87,0,0,1-2.75-4.05c-0.5-2.88.57-5.08,2.63-7.1,6.41-6.27,12.71-12.67,19.06-19,3.31-3.3,6.94-3.31,10.23,0,2.43,2.41,4.78,4.91,7.29,7.23,1.08,1,1.23,1.83.38,2.93a2,2,0,0,0-.33.13l-0.39.32c-3.72,3.69-7.48,7.35-11.14,11.1-0.94,1-1.47.95-2.36,0-1.63-1.78-3.38-3.45-5.1-5.14-2.33-2.3-5-2.38-7.36-.18-1.34,1.24-2.64,2.53-3.87,3.87-1.61,1.75-2.19,3.73-.95,6a1.73,1.73,0,0,0,1.24,1.13,12.51,12.51,0,0,0,1,1.4Q818.07-197,824-191c3,3,5.56,3,8.54,0q9.82-9.81,19.64-19.63C852.74-211.15,853.15-211.95,854.12-211.61Z" transform="translate(-801.63 234.29)"/><path class="a" d="M842.85-219.38c1.71-1.69,3.44-3.35,5.12-5.07a2.08,2.08,0,0,1,3.34,0c1,1,2,2.1,3.12,3.1a2.66,2.66,0,0,1,.68,3.6,5.12,5.12,0,0,0-1.6,1.36l-23,23c-1.91,1.91-2.56,1.9-4.5,0s-4-4-6-6c-2.41-2.33-4.59-4.9-7.22-7l-0.64-1.38c0.71-2.29,2.82-3.39,4.29-5s2.24-1.46,3.7,0c2.42,2.4,4.85,4.81,7.23,7.26a1.05,1.05,0,0,0,1.84,0C833.71-210.2,838.28-214.78,842.85-219.38Z" transform="translate(-801.63 234.29)"/><path class="a" d="M841-221.56l-0.39.32Z" transform="translate(-801.63 234.29)"/></svg>
