<svg xmlns="http://www.w3.org/2000/svg" viewBox="0 0 129.55 129.45"><path class="a" d="M1309.56-197c-1-55-44.29-97.26-97.8-98v-31.31c63.49-2.95,130.44,53.22,129.32,129.34h-31.53Z" transform="translate(-1211.55 326.45)"/><path class="a" d="M1211.79-277.85c44.47-1.29,82.19,38.33,80.55,80.68H1263c-0.43-14.07-5.22-26.22-15.18-36.14s-21.89-14.7-36-15.1v-29.43Z" transform="translate(-1211.55 326.45)"/><path class="a" d="M1229.8-197a18.56,18.56,0,0,1-18.25-18.51,18.63,18.63,0,0,1,18.6-18.2,18.67,18.67,0,0,1,18.1,18.35A18.66,18.66,0,0,1,1229.8-197Z" transform="translate(-1211.55 326.45)"/></svg>
