<svg xmlns="http://www.w3.org/2000/svg" viewBox="0 0 87.25 51.61"><path class="a" d="M789.58-204.26c-0.15.89-.3,1.78-0.45,2.66a20.68,20.68,0,0,1-6.37,11.86,21.19,21.19,0,0,1-12.57,5.85,21.68,21.68,0,0,1-19-7.36l-0.52-.56a1,1,0,0,0-.22-0.1l-4.61,6.84-4.7-7c-0.38.45-.68,0.86-1,1.23a21.09,21.09,0,0,1-15.34,6.95,20.87,20.87,0,0,1-13.67-4.3,21.33,21.33,0,0,1-8.37-13.43c-0.13-.7-0.29-1.39-0.44-2.09q0-1.81,0-3.62c0.17-.91.32-1.82,0.5-2.73a21.78,21.78,0,0,1,3.38-7.95,1.4,1.4,0,0,0,.16-1.44c-0.36-.88-0.62-1.8-1-2.65a18.92,18.92,0,0,0-3-4.88v-0.28c4.43,0,8.87.05,13.3,0a4.44,4.44,0,0,0,1.92-.88,47.35,47.35,0,0,1,10.21-4.54,59.34,59.34,0,0,1,17.48-2.69,58.65,58.65,0,0,1,14.1,1.47,51.62,51.62,0,0,1,15,6.08,3.63,3.63,0,0,0,1.77.47c4,0,7.94,0,11.91,0h1.48c-0.56.92-1.11,1.67-1.51,2.48-0.89,1.83-1.73,3.68-2.51,5.56a1.56,1.56,0,0,0,.2,1.21,24.19,24.19,0,0,1,3.47,8.07c0.16,0.79.31,1.58,0.47,2.37v3.34Zm-4.46-1.3A17.26,17.26,0,0,0,767.48-223a17.26,17.26,0,0,0-17.16,17.33,17.37,17.37,0,0,0,17.41,17.47A17.35,17.35,0,0,0,785.12-205.56Zm-60.9-17.5a17.47,17.47,0,0,0-17.41,17.42,17.44,17.44,0,0,0,17.29,17.39,17.38,17.38,0,0,0,17.5-17.16A17.4,17.4,0,0,0,724.22-223.06Zm1.24-4.61a22.85,22.85,0,0,1,13.42,5.83,22.45,22.45,0,0,1,7,12.76c2.61-10.77,9.33-16.93,20.28-18.53C752.63-232.94,739.07-232.77,725.46-227.67Z" transform="translate(-702.34 235.38)"/><path class="a" d="M756.89-205.8a10.68,10.68,0,0,1,10.71-10.78,10.67,10.67,0,0,1,10.84,10.71,10.75,10.75,0,0,1-10.63,10.81A10.77,10.77,0,0,1,756.89-205.8Zm10.79,7a7.06,7.06,0,0,0,7-7,7.11,7.11,0,0,0-7-7.08,7.14,7.14,0,0,0-7.09,7A7.12,7.12,0,0,0,767.68-198.81Z" transform="translate(-702.34 235.38)"/><path class="a" d="M723.94-216.58a10.68,10.68,0,0,1,10.77,10.8,10.76,10.76,0,0,1-10.94,10.73,10.86,10.86,0,0,1-10.66-10.76A10.78,10.78,0,0,1,723.94-216.58Zm0,17.78a7.1,7.1,0,0,0,7-7.08,7.14,7.14,0,0,0-7.12-7,7.15,7.15,0,0,0-7,7.05A7.12,7.12,0,0,0,724-198.81Z" transform="translate(-702.34 235.38)"/><path class="a" d="M771.24-205.84a3.51,3.51,0,0,1-3.53,3.54,3.51,3.51,0,0,1-3.58-3.54,3.53,3.53,0,0,1,3.59-3.56A3.57,3.57,0,0,1,771.24-205.84Z" transform="translate(-702.34 235.38)"/><path class="a" d="M723.86-202.28a3.48,3.48,0,0,1-3.51-3.62,3.52,3.52,0,0,1,3.62-3.53,3.64,3.64,0,0,1,3.58,3.68A3.57,3.57,0,0,1,723.86-202.28Z" transform="translate(-702.34 235.38)"/></svg>
