<svg xmlns="http://www.w3.org/2000/svg" viewBox="0 0 87.25 51.61"><path class="a" d="M87.24 31.12c-.15.89-.3 1.78-.45 2.66a20.68 20.68 0 0 1-6.37 11.86 21.19 21.19 0 0 1-12.57 5.85 21.68 21.68 0 0 1-19-7.36l-.52-.56a1 1 0 0 0-.22-.1l-4.61 6.84-4.7-7c-.38.45-.68.86-1 1.23a21.09 21.09 0 0 1-15.34 6.95 20.87 20.87 0 0 1-13.67-4.3A21.33 21.33 0 0 1 .42 33.76c-.13-.7-.29-1.39-.44-2.09v-3.62c.17-.91.32-1.82.5-2.73a21.78 21.78 0 0 1 3.38-7.95 1.4 1.4 0 0 0 .16-1.44c-.36-.88-.62-1.8-1-2.65a18.92 18.92 0 0 0-3-4.88v-.28c4.43 0 8.87.05 13.3 0a4.44 4.44 0 0 0 1.92-.88A47.35 47.35 0 0 1 25.45 2.7 59.34 59.34 0 0 1 42.93.01a58.65 58.65 0 0 1 14.1 1.47 51.62 51.62 0 0 1 15 6.08 3.63 3.63 0 0 0 1.77.47h13.39c-.56.92-1.11 1.67-1.51 2.48-.89 1.83-1.73 3.68-2.51 5.56a1.56 1.56 0 0 0 .2 1.21 24.19 24.19 0 0 1 3.47 8.07c.16.79.31 1.58.47 2.37v3.34zm-4.46-1.3a17.26 17.26 0 0 0-17.64-17.44 17.26 17.26 0 0 0-17.16 17.33 17.37 17.37 0 0 0 17.41 17.47 17.35 17.35 0 0 0 17.39-17.36zm-60.9-17.5A17.47 17.47 0 0 0 4.47 29.74a17.44 17.44 0 0 0 17.29 17.39 17.38 17.38 0 0 0 17.5-17.16 17.4 17.4 0 0 0-17.38-17.65zm1.24-4.61a22.85 22.85 0 0 1 13.42 5.83 22.45 22.45 0 0 1 7 12.76c2.61-10.77 9.33-16.93 20.28-18.53-13.53-5.33-27.09-5.16-40.7-.06z"/><path class="a" d="M54.55 29.58A10.68 10.68 0 0 1 65.26 18.8 10.67 10.67 0 0 1 76.1 29.51a10.75 10.75 0 0 1-10.63 10.81 10.77 10.77 0 0 1-10.92-10.74zm10.79 7a7.06 7.06 0 0 0 7-7 7.11 7.11 0 0 0-7-7.08 7.14 7.14 0 0 0-7.09 7 7.12 7.12 0 0 0 7.09 7.07zM21.6 18.8a10.68 10.68 0 0 1 10.77 10.8 10.76 10.76 0 0 1-10.94 10.73 10.86 10.86 0 0 1-10.66-10.76A10.78 10.78 0 0 1 21.6 18.8zm0 17.78a7.1 7.1 0 0 0 7-7.08 7.14 7.14 0 0 0-7.12-7 7.15 7.15 0 0 0-7 7.05 7.12 7.12 0 0 0 7.18 7.02z"/><path class="a" d="M68.9 29.54a3.51 3.51 0 0 1-3.53 3.54 3.51 3.51 0 0 1-3.58-3.54 3.53 3.53 0 0 1 3.59-3.56 3.57 3.57 0 0 1 3.52 3.56zM21.52 33.1a3.48 3.48 0 0 1-3.51-3.62 3.52 3.52 0 0 1 3.62-3.53 3.64 3.64 0 0 1 3.58 3.68 3.57 3.57 0 0 1-3.69 3.47z"/></svg>