<svg xmlns="http://www.w3.org/2000/svg" viewBox="0 0 39.32 44.49"><path class="a" d="M33.81 21.67a21.52 21.52 0 0 0-4.71-1.62l1.32-.65a9.66 9.66 0 0 0 5.62-9.44c-.13-4.23-2.51-6.94-6.37-8.49a26.51 26.51 0 0 0-9.44-1.4C13.83-.04 7.42.07 1 .01c-.73 0-1 .17-1 1v42.54c0 .84.28 1 1.06 1h20a25 25 0 0 0 9-1.45c4.9-1.94 8.45-5 9.18-10.65a10.09 10.09 0 0 0-5.43-10.78zm-21.52-5.38c.06-1.15 0-2.29 0-3.46V8.92c0-.43 0-.78.63-.76 2.29.11 4.6-.19 6.87.22a4 4 0 0 1 3.67 3.89c.11 2.18-.56 3.87-2.83 4.67a7.23 7.23 0 0 1-2.61.52c-1.51 0-3-.06-4.54 0-1.02.17-1.26-.22-1.19-1.17zm13.48 17.26c-1.06 1.75-2.87 2.2-4.69 2.51-2.7.48-5.44.15-8.19.24-.58 0-.6-.32-.6-.76v-9.51c0-.41 0-.82.58-.8 3.09.09 6.2-.28 9.27.26a5.15 5.15 0 0 1 3.63 8.06z"/></svg>