<svg xmlns="http://www.w3.org/2000/svg" viewBox="0 0 162.17 138.03"><rect x="126.42" y="125.39" width="33.99" height="3.68" rx="1.84" ry="1.84"/><path d="M144.14 104.33h-1.51c-8.6 0-16-8.33-17.71-19.81a33.09 33.09 0 0 1-.16-7.36l3.67-47.17a2.73 2.73 0 0 1 2.72-2.52h24.47a2.73 2.73 0 0 1 2.72 2.52l3.67 47.17a33.09 33.09 0 0 1-.16 7.36c-1.63 11.45-9.08 19.81-17.71 19.81zm-11-73.18a1.25 1.25 0 0 0-1.25 1.15l-3.51 45.14a29.65 29.65 0 0 0 .13 6.55c1.4 9.65 7.32 16.66 14.07 16.66h1.56c6.75 0 12.67-7 14.07-16.66a29.57 29.57 0 0 0 .13-6.55l-3.51-45.14a1.25 1.25 0 0 0-1.25-1.15h-20.4z"/><rect x="2134.4" y="-1186.96" width="35.37" height="3.55" rx="1.78" ry="1.78" transform="rotate(-86.19 1809.196 515.217)"/><path d="M141.57 103.63h3.68v24.52h-3.68zM9.51 128.53a1.63 1.63 0 0 0 1.26.54h66.89l31.2 9h.54a2.55 2.55 0 0 0 1.08-.36 1.63 1.63 0 0 0 .72-1.43v-7.17h7.17a1.63 1.63 0 0 0 1.26-.54l9-9a1.64 1.64 0 0 0 .36-2 1.57 1.57 0 0 0-1.61-1.08h-7.24a55.6 55.6 0 0 0-50-53.44 5.89 5.89 0 0 0 .72-3 6.35 6.35 0 0 0-6.28-6.28 6.35 6.35 0 0 0-6.28 6.28 8.45 8.45 0 0 0 .72 3 55.6 55.6 0 0 0-50 53.44H1.85a1.57 1.57 0 0 0-1.61 1.08 1.64 1.64 0 0 0 .36 2zm98.09 5.38L59.36 120.1h48.24v13.81zm15.42-13.81l-5.38 5.38h-6.5v-5.38h11.84zM64.56 57.33a2.76 2.76 0 0 1 2.69 2.69 2.76 2.76 0 0 1-2.69 2.69 2.76 2.76 0 0 1-2.69-2.69 2.76 2.76 0 0 1 2.69-2.69zm0 9a52 52 0 0 1 52 50.21h-104a52 52 0 0 1 52-50.21zm-53.8 53.8h35.68l18.83 5.38h-53.8l-5.38-5.38h4.66z"/><path d="M66.36 73.48a1.69 1.69 0 0 0-1.79-1.79 46.48 46.48 0 0 0-42.68 28 1.78 1.78 0 0 0 .9 2.33 1.08 1.08 0 0 0 .72.18 1.57 1.57 0 0 0 1.61-1.08A43.23 43.23 0 0 1 64.57 75.3a1.69 1.69 0 0 0 1.79-1.82zM79.99 54.65a1.58 1.58 0 0 0 .72 2.33 1.34 1.34 0 0 0 .9.18 1.88 1.88 0 0 0 1.61-.9c5-9.68 2.33-15.06.18-19.55s-4.12-8.25 0-16.32a1.78 1.78 0 0 0-.9-2.33 1.78 1.78 0 0 0-2.33.9c-4.84 9.68-2.15 14.88 0 19.55 2.15 4.3 3.97 8.07-.18 16.14zM62.05 36.72a1.58 1.58 0 0 0 .72 2.33 1.34 1.34 0 0 0 .9.18 1.88 1.88 0 0 0 1.61-.9c5-9.68 2.33-15.06.18-19.55s-4.12-8.25 0-16.32a1.78 1.78 0 0 0-.9-2.33 1.78 1.78 0 0 0-2.33.9c-4.84 9.68-2.15 14.88 0 19.55 2.16 4.3 3.91 8.07-.18 16.14zM45.74 54.65a1.58 1.58 0 0 0 .72 2.33 1.34 1.34 0 0 0 .9.18 1.88 1.88 0 0 0 1.61-.9c5-9.68 2.33-15.06.18-19.55s-4.12-8.25 0-16.32a1.78 1.78 0 0 0-.9-2.33 1.78 1.78 0 0 0-2.33.9c-4.84 9.68-2.15 14.88 0 19.55 2.15 4.3 3.94 8.07-.18 16.14z"/></svg>