<svg xmlns="http://www.w3.org/2000/svg" viewBox="0 0 23.51 52.27"><title>icon--facebook</title><path class="a" d="M21.73 10.13c-.63-.41-1.15-.74-1.67-1.06a5.17 5.17 0 0 0-3.3-.85 3.4 3.4 0 0 0-3.54 3.1 3.53 3.53 0 0 0-.09.41c-.35 2.56 0 3 2.54 3h5.43c.72 0 1 .17.82.93-.52 2.47-1 4.95-1.48 7.42a.85.85 0 0 1-1 .8c-1.52 0-3 .07-4.56 0-1-.07-1.17.3-1.17 1.22v25.94c0 1.06-.28 1.35-1.32 1.3-2.21-.09-4.41 0-6.62 0-1.41 0-1.41 0-1.41-1.37V25.25c0-1.15-.33-1.41-1.39-1.35-.91.07-2.08.41-2.74-.17s0-1.71 0-2.6v-5.54a.67.67 0 0 1 .8-.82h2.71a.68.68 0 0 0 .85-.87 20.28 20.28 0 0 1 .43-5.49c1.43-6.19 5.19-8.75 12-8.27 2.08.15 4 1.09 5.9 1.74a.71.71 0 0 1 .54 1c-.55 2.32-1.12 4.71-1.73 7.25z"/></svg>