<svg xmlns="http://www.w3.org/2000/svg" viewBox="0 0 45.19 45.36"><path class="a" d="M32.09 16.38a.85.85 0 0 1 .65-.1h11.49c.5 0 .83 0 .83.69-.06 6.58-.12 13.14 0 19.72a9.09 9.09 0 0 1-8.86 8.7c-9.21-.1-18.43 0-27.64 0A9 9 0 0 1 .2 38a22.62 22.62 0 0 1-.14-3.05V17.41a.91.91 0 0 1 1.11-1.13q5.5.06 11 0c1 0 .93.22.52 1A11.45 11.45 0 0 0 20 34.22a11.4 11.4 0 0 0 14-10.94 12 12 0 0 0-1.64-6.22.67.67 0 0 1-.27-.68zM44.73 6.82A8.8 8.8 0 0 0 37.08.18a45.14 45.14 0 0 0-4.64-.12C25.86 0 19.3.06 12.72 0a.73.73 0 0 0-.87.91v9.41c0 .83-.28 1-1 1s-1-.2-1-1V1.21c0-.46.42-1.25-.61-1.23s-.55.75-.55 1.17v9.11c0 .67-.1 1-.89 1s-1-.32-1-1.05v-9c0-.3.06-.69-.28-.77a1 1 0 0 0-.91.3 1 1 0 0 0-.14.85v8.62c0 .69 0 1.09-.93 1.07s-.87-.4-.87-1V1.76A9.13 9.13 0 0 0 .26 6.61c-.65 2.4-.26 4.85-.4 7.29 0 .79.22 1 1 1h12.38a2.29 2.29 0 0 0 1.61-.57c4.12-3.41 9.49-3.9 13.73-.91a7.66 7.66 0 0 0 5.37 1.47h10.2c.36 0 .87.18.87-.48.13-2.54.36-5.11-.29-7.59zm-3.88 3.51a1.21 1.21 0 0 1-1.11 1.19 20 20 0 0 1-5.21 0 1.21 1.21 0 0 1-1.17-1.25 37 37 0 0 1 .06-5.13 1.13 1.13 0 0 1 1.23-1.13H39.71a1.09 1.09 0 0 1 1.15 1.11 25.45 25.45 0 0 1-.01 5.21z"/><path class="a" d="M22.36 14.09a8.93 8.93 0 0 0-8.7 8.76 8.74 8.74 0 0 0 9 9 8.77 8.77 0 0 0 8.64-8.78 8.83 8.83 0 0 0-8.94-8.98zm.12 15.4a6.51 6.51 0 0 1-6.44-6.64 6.53 6.53 0 0 1 6.38-6.38 6.52 6.52 0 0 1 6.66 6.42 6.48 6.48 0 0 1-6.6 6.6z"/></svg>