<svg xmlns="http://www.w3.org/2000/svg" viewBox="0 0 144.54 113.04"><path d="M27.88 69.69A28 28 0 0 1 0 41.85a28 28 0 0 1 27.87-27.87h3.66A28 28 0 0 1 55.75.04a27.54 27.54 0 0 1 24 13.94h3.83a28 28 0 0 1 27.92 27.87 28 28 0 0 1-27.87 27.87v38.33a3.49 3.49 0 0 1-3.48 3.48H31.37a3.49 3.49 0 0 1-3.48-3.48V69.72zm0-41.81a30.06 30.06 0 0 1 1.92-10.45h-1.92A24.46 24.46 0 0 0 3.49 41.82a24.46 24.46 0 0 0 24.39 24.39 3.5 3.5 0 0 1 3.48 3.48V90.6h10.45V76.66a1.65 1.65 0 0 1 1.74-1.74 1.65 1.65 0 0 1 1.74 1.74V90.6H54V73.18a1.65 1.65 0 0 1 1.74-1.74 1.65 1.65 0 0 1 1.74 1.74V90.6h8.71V76.66a1.65 1.65 0 0 1 1.74-1.74 1.65 1.65 0 0 1 1.74 1.74V90.6h10.45V69.69a3.5 3.5 0 0 1 3.48-3.48A24.46 24.46 0 0 0 108 41.85a24.46 24.46 0 0 0-24.39-24.39h-2.09a26.67 26.67 0 0 1 2.09 10.45v7a1.65 1.65 0 0 1-1.74 1.74 1.65 1.65 0 0 1-1.74-1.74v-7A24.46 24.46 0 0 0 55.74 3.52a24.46 24.46 0 0 0-24.39 24.39v7a1.65 1.65 0 0 1-1.74 1.74 1.65 1.65 0 0 1-1.74-1.74v-7zm3.48 80.14h48.78V94.08H31.36v13.94z"/><path d="M103 92.26a20.73 20.73 0 0 0 20.77 20.77 20.84 20.84 0 0 0 20.77-20.77c0-3.68-6.87-6.71-14.38-7.51v-64.6a6.41 6.41 0 0 0-6.39-6.39 6.41 6.41 0 0 0-6.39 6.39v64.6c-7.67.8-14.38 3.84-14.38 7.51zm25.57-4.63c3.2 0 12.78 1.76 12.78 4.63 0 2.72-7.83 4.79-17.58 4.79s-17.58-2.08-17.58-4.79c0-2.88 9.59-4.63 12.78-4.63a1.51 1.51 0 0 0 1.6-1.6V20.15a3.21 3.21 0 0 1 3.2-3.2 3.21 3.21 0 0 1 3.2 3.2v65.88a1.51 1.51 0 0 0 1.6 1.6zm-4.79 22.21a17.69 17.69 0 0 1-17.1-12.94c3.84 2.08 10.07 3.36 17.1 3.36s13.26-1.28 16.94-3.36a17.36 17.36 0 0 1-16.95 12.95zM38.67 27.34a1.75 1.75 0 0 1-1.75-1.9A18.92 18.92 0 0 1 54.11 8.71a1.75 1.75 0 0 1 1.9 1.75 1.75 1.75 0 0 1-1.6 1.74 15.53 15.53 0 0 0-14 13.58 1.75 1.75 0 0 1-1.74 1.56z"/></svg>